# xmcd
#
# Track frame offsets:
#	150
#	19858
#	36804
#	51267
#	61690
#	79473
#	96740
#	109593
#	121147
#	133259
#	150846
#	160702
#	172708
#	181292
#
# Disc length: 2704 seconds
#
# Revision: 1
# Processed by: cddbd v1.5.2PL0 Copyright (c) Steve Scherf et al.
# Submitted via: audiograbber 1.83.01
#
DISCID=ab0a8e0e
DTITLE=Cash Nelson Jennings Kristofferson - The Highwaymen
DYEAR=2009
DGENRE=Country
TTITLE0=Pancho and Lefty (WN)
TTITLE1=Sunday morning coming down (JC)
TTITLE2=Out of mind, out of sight (KK)
TTITLE3=Walk on out of my mind (WJ)
TTITLE4=Red-headed stranger (WN)
TTITLE5=The ballad of Ira Hayes (JC)
TTITLE6=Love of the common people (WJ)
TTITLE7=Is there something on your mind (WN)
TTITLE8=Give my love to rose (JC)
TTITLE9=Just the other side of nowhere (KK)
TTITLE10=Broken promises (WN)
TTITLE11=Sixteen tons (JC)
TTITLE12=Love's gonna live here (WJ)
TTITLE13=City of New Orleans (WN)
EXTD=CD 2 of 3 Golden Stars Box
EXTT0=
EXTT1=
EXTT2=
EXTT3=
EXTT4=
EXTT5=
EXTT6=
EXTT7=
EXTT8=
EXTT9=
EXTT10=
EXTT11=
EXTT12=
EXTT13=
PLAYORDER=
